<svg version="1.1" viewBox="0.0 0.0 578.3700787401575 118.1522309711286" fill="none" stroke="none" stroke-linecap="square" stroke-miterlimit="10" xmlns:xlink="http://www.w3.org/1999/xlink" xmlns="http://www.w3.org/2000/svg"><clipPath id="p.0"><path d="m0 0l578.37006 0l0 118.15223l-578.37006 0l0 -118.15223z" clip-rule="nonzero"/></clipPath><g clip-path="url(#p.0)"><path fill="#000000" fill-opacity="0.0" d="m0 0l578.37006 0l0 118.15223l-578.37006 0z" fill-rule="evenodd"/><path fill="#000000" fill-opacity="0.0" d="m-13.192913 -23.54593l634.89764 0l0 128.47244l-634.89764 0z" fill-rule="evenodd"/><path fill="#ffffff" d="m58.682087 16.209074l15.249996 0l0 92.125l-15.249996 0l-31.0 -54.500004l0 -28.749998l31.0 54.625l0 -63.5zm-51.375 92.125l0 -92.125l15.25 0l0 92.125l-15.25 0zm121.5 -71.125q6.75 0.625 12.1875 3.625q5.4375 3.0 9.3125 7.75q3.875 4.75 5.9375 10.875q2.0625 6.125004 2.0625 12.750004q0 3.0 -0.375 6.0l-42.875 0l0 -11.0l28.875 0q0 -3.2500038 -1.0625 -6.250004q-1.0625 -3.0 -3.125 -5.5625q-2.0625 -2.5625 -4.8125 -4.3125q-2.75 -1.75 -6.125 -2.125l0 -11.75zm-0.5 59.375004q1.375 0 3.4375 -0.3125q2.0625 -0.3125 4.375 -1.125q2.3125 -0.8125 4.625 -2.0625q2.3125 -1.25 4.0625 -3.0l5.5 8.375q-4.125 5.125 -9.625 7.75q-5.5 2.625 -14.0 2.625q-6.875 0 -12.875 -2.8125q-6.0 -2.8125 -10.25 -7.6875q-4.25 -4.875 -6.75 -11.375q-2.5 -6.5 -2.5 -14.0q0 -7.125 2.3125 -13.500004q2.3125 -6.375 6.3125 -11.1875q4.0 -4.8125 9.3125 -7.8125q5.3125 -3.0 11.4375 -3.375l0 12.0q-4.625 0.875 -7.625 3.75q-3.0 2.875 -4.6875 6.5625q-1.6875 3.6875 -2.375 7.562504q-0.6875 3.875 -0.6875 6.625q0 4.875 1.1875 9.0625q1.1875 4.1875 3.6875 7.25q2.5 3.0625 6.1875 4.875q3.6875 1.8125 8.9375 1.8125zm70.875 -9.625q0 4.25 1.125 6.625q1.125 2.375 3.1875 3.625q2.0625 1.25 4.625 1.5625q2.5625 0.3125 5.4375 0.3125l0 9.25q-1.625 0.25 -3.25 0.375q-1.375 0.125 -3.3125 0.1875q-1.9375 0.0625 -3.8125 0.0625q-1.875 0 -3.8125 -0.125q-1.9375 -0.125 -3.3125 -0.375q-4.25 -0.75 -6.625 -3.6875q-2.375 -2.9375 -3.5625 -6.5q-1.1875 -3.5625 -1.5 -6.9375q-0.3125 -3.375 -0.3125 -5.25l0 -38.000004l-9.25 0l0 -10.25l9.25 0l0 -19.999998l15.125 0l0 19.999998l11.25 0l0 10.25l-11.25 0l0 38.875004zm63.750015 8.75l17.5 -79.5l5.875 0l0 33.375l-13.625 59.250004l-19.625015 0l-23.375 -92.625l17.0 0l16.250015 79.5zm68.375 -79.5l17.0 0l-24.875 92.625l-19.5 0l-12.5 -56.875004l0 -35.75l6.0 0l16.25 79.5l17.625 -79.5zm69.75 21.249998q6.875 0.375 12.5 3.3125q5.625 2.9375 9.4375 7.75q3.8125 4.8125 5.9375 11.1875q2.125 6.375004 2.125 13.625004q0 7.25 -2.1875 13.5625q-2.1875 6.3125 -6.0625 11.0q-3.875 4.6875 -9.5 7.5625q-5.625 2.875 -12.25 3.375l0 -12.0q6.25 -1.375 10.1875 -7.875q3.9375 -6.5 3.9375 -15.625q0 -4.625 -0.9375 -8.6875q-0.9375 -4.062504 -2.8125 -7.312504q-1.875 -3.25 -4.5 -5.375q-2.625 -2.125 -5.875 -2.75l0 -11.75zm-34.875 35.625004q0 -7.25 2.125 -13.500004q2.125 -6.25 6.0625 -10.9375q3.9375 -4.6875 9.4375 -7.5625q5.5 -2.875 12.125 -3.5l0 11.625q-6.25 1.375 -10.0 7.875q-3.75 6.5 -3.75 15.625004q0 4.625 0.9375 8.75q0.9375 4.125 2.6875 7.375q1.75 3.25 4.3125 5.375q2.5625 2.125 5.8125 2.625l0 12.0q-6.875 -0.5 -12.375 -3.4375q-5.5 -2.9375 -9.375 -7.6875q-3.875 -4.75 -5.9375 -11.125q-2.0625 -6.375 -2.0625 -13.5zm98.0 -35.250004l1.625 7.25l0 38.250004l0 0.25l0 24.75l-15.125 0l0 -70.5l13.5 0zm6.75 3.125q3.125 -1.75 7.5 -2.6875q4.375 -0.9375 11.875 -0.9375l0 15.75q-3.5 -1.0 -8.5 -1.125q-2.75 0 -5.5625 0.4375q-2.8125 0.4375 -5.3125 1.3125l0 -12.75zm65.62497 32.000004l28.0 35.375l-17.25 0l-20.5 -27.0l0 -17.375004l17.5 -26.125l17.0 0l-24.75 35.125004zm-30.12497 35.375l0 -97.125l15.2499695 0l0 97.125l-15.2499695 0z" fill-rule="nonzero"/></g></svg>